<mxfile host="app.diagrams.net" agent="Mozilla/5.0 (Windows NT 10.0; Win64; x64) AppleWebKit/537.36 (KHTML, like Gecko) Chrome/131.0.0.0 Safari/537.36" version="26.0.6">
  <diagram name="Page-1" id="JVvLZGwj4mTaaCQ5iZFU">
    <mxGraphModel dx="1027" dy="921" grid="1" gridSize="20" guides="1" tooltips="1" connect="1" arrows="1" fold="1" page="1" pageScale="1" pageWidth="850" pageHeight="1100" background="light-dark(#7D7D7D,#4D4D4D)" math="0" shadow="0">
      <root>
        <mxCell id="0" />
        <mxCell id="1" parent="0" />
        <mxCell id="1ZWAAFY9LWj_6pBdIGMN-3" style="edgeStyle=orthogonalEdgeStyle;rounded=0;orthogonalLoop=1;jettySize=auto;html=1;exitX=0.5;exitY=1;exitDx=0;exitDy=0;labelBackgroundColor=none;strokeColor=#736CA8;fontColor=default;" edge="1" parent="1" source="uszU5f1bQ0AOLVt4XQ8s-1" target="1ZWAAFY9LWj_6pBdIGMN-2">
          <mxGeometry relative="1" as="geometry" />
        </mxCell>
        <mxCell id="1ZWAAFY9LWj_6pBdIGMN-18" style="edgeStyle=orthogonalEdgeStyle;rounded=0;orthogonalLoop=1;jettySize=auto;html=1;exitX=1;exitY=0.5;exitDx=0;exitDy=0;entryX=0;entryY=0.5;entryDx=0;entryDy=0;strokeColor=#736CA8;fontColor=#1A1A1A;" edge="1" parent="1" source="uszU5f1bQ0AOLVt4XQ8s-1" target="1ZWAAFY9LWj_6pBdIGMN-1">
          <mxGeometry relative="1" as="geometry" />
        </mxCell>
        <mxCell id="uszU5f1bQ0AOLVt4XQ8s-1" value="Flake.nix / Home Manager module." style="rounded=1;whiteSpace=wrap;html=1;fillColor=#5D7F99;fontColor=#1A1A1A;strokeColor=#D0CEE2;labelBackgroundColor=none;" parent="1" vertex="1">
          <mxGeometry x="320" y="20" width="120" height="60" as="geometry" />
        </mxCell>
        <mxCell id="1ZWAAFY9LWj_6pBdIGMN-6" style="edgeStyle=orthogonalEdgeStyle;rounded=0;orthogonalLoop=1;jettySize=auto;html=1;exitX=1;exitY=0.5;exitDx=0;exitDy=0;entryX=0;entryY=0.5;entryDx=0;entryDy=0;strokeColor=#736CA8;fontColor=#1A1A1A;" edge="1" parent="1" source="uszU5f1bQ0AOLVt4XQ8s-2" target="uszU5f1bQ0AOLVt4XQ8s-1">
          <mxGeometry relative="1" as="geometry" />
        </mxCell>
        <mxCell id="uszU5f1bQ0AOLVt4XQ8s-2" value="inputs&lt;div&gt;{from internet}&lt;/div&gt;" style="ellipse;whiteSpace=wrap;html=1;fillColor=#5D7F99;labelBackgroundColor=none;strokeColor=#D0CEE2;fontColor=#1A1A1A;" parent="1" vertex="1">
          <mxGeometry x="50" y="15" width="110" height="70" as="geometry" />
        </mxCell>
        <mxCell id="1ZWAAFY9LWj_6pBdIGMN-5" style="edgeStyle=orthogonalEdgeStyle;rounded=0;orthogonalLoop=1;jettySize=auto;html=1;exitX=0.5;exitY=1;exitDx=0;exitDy=0;labelBackgroundColor=none;strokeColor=#736CA8;fontColor=default;" edge="1" parent="1" source="uszU5f1bQ0AOLVt4XQ8s-10" target="uszU5f1bQ0AOLVt4XQ8s-17">
          <mxGeometry relative="1" as="geometry" />
        </mxCell>
        <mxCell id="uszU5f1bQ0AOLVt4XQ8s-10" value="/hosts/&amp;lt;host&amp;gt;" style="rounded=1;whiteSpace=wrap;html=1;fillColor=#5D7F99;fontColor=#1A1A1A;strokeColor=#D0CEE2;labelBackgroundColor=none;" parent="1" vertex="1">
          <mxGeometry x="40" y="170" width="120" height="60" as="geometry" />
        </mxCell>
        <mxCell id="uszU5f1bQ0AOLVt4XQ8s-17" value="/common/system" style="rounded=1;whiteSpace=wrap;html=1;fillColor=#5D7F99;fontColor=#1A1A1A;strokeColor=#D0CEE2;labelBackgroundColor=none;" parent="1" vertex="1">
          <mxGeometry x="40" y="300" width="120" height="60" as="geometry" />
        </mxCell>
        <mxCell id="1ZWAAFY9LWj_6pBdIGMN-1" value="&lt;div&gt;script for:&lt;/div&gt;sudo nixos-rebuild&lt;div&gt;--flake --update&lt;/div&gt;" style="shape=step;perimeter=stepPerimeter;whiteSpace=wrap;html=1;fixedSize=1;fillColor=#5D7F99;fontColor=#1A1A1A;strokeColor=#D0CEE2;labelBackgroundColor=none;" vertex="1" parent="1">
          <mxGeometry x="540" y="20" width="160" height="60" as="geometry" />
        </mxCell>
        <mxCell id="1ZWAAFY9LWj_6pBdIGMN-4" style="edgeStyle=orthogonalEdgeStyle;rounded=0;orthogonalLoop=1;jettySize=auto;html=1;exitX=0;exitY=0.5;exitDx=0;exitDy=0;entryX=1;entryY=0.5;entryDx=0;entryDy=0;labelBackgroundColor=none;strokeColor=#736CA8;fontColor=default;" edge="1" parent="1" source="1ZWAAFY9LWj_6pBdIGMN-2" target="uszU5f1bQ0AOLVt4XQ8s-10">
          <mxGeometry relative="1" as="geometry">
            <mxPoint x="180" y="199.83333333333348" as="targetPoint" />
          </mxGeometry>
        </mxCell>
        <mxCell id="1ZWAAFY9LWj_6pBdIGMN-9" style="edgeStyle=orthogonalEdgeStyle;rounded=0;orthogonalLoop=1;jettySize=auto;html=1;exitX=1;exitY=0.5;exitDx=0;exitDy=0;entryX=0;entryY=0.5;entryDx=0;entryDy=0;strokeColor=#736CA8;fontColor=#1A1A1A;" edge="1" parent="1" source="1ZWAAFY9LWj_6pBdIGMN-2" target="1ZWAAFY9LWj_6pBdIGMN-8">
          <mxGeometry relative="1" as="geometry" />
        </mxCell>
        <mxCell id="1ZWAAFY9LWj_6pBdIGMN-11" style="edgeStyle=orthogonalEdgeStyle;rounded=0;orthogonalLoop=1;jettySize=auto;html=1;exitX=0.5;exitY=1;exitDx=0;exitDy=0;entryX=0.5;entryY=0;entryDx=0;entryDy=0;strokeColor=#736CA8;fontColor=#1A1A1A;" edge="1" parent="1" source="1ZWAAFY9LWj_6pBdIGMN-2" target="1ZWAAFY9LWj_6pBdIGMN-10">
          <mxGeometry relative="1" as="geometry" />
        </mxCell>
        <mxCell id="1ZWAAFY9LWj_6pBdIGMN-14" style="edgeStyle=orthogonalEdgeStyle;rounded=0;orthogonalLoop=1;jettySize=auto;html=1;exitX=0.75;exitY=1;exitDx=0;exitDy=0;strokeColor=#736CA8;fontColor=#1A1A1A;entryX=0.5;entryY=0;entryDx=0;entryDy=0;" edge="1" parent="1" source="1ZWAAFY9LWj_6pBdIGMN-2" target="1ZWAAFY9LWj_6pBdIGMN-16">
          <mxGeometry relative="1" as="geometry">
            <mxPoint x="620" y="320" as="targetPoint" />
          </mxGeometry>
        </mxCell>
        <mxCell id="1ZWAAFY9LWj_6pBdIGMN-2" value="/users/&amp;lt;user&amp;gt;" style="rounded=1;whiteSpace=wrap;html=1;fillColor=#5D7F99;fontColor=#1A1A1A;strokeColor=#D0CEE2;labelBackgroundColor=none;" vertex="1" parent="1">
          <mxGeometry x="320" y="170" width="120" height="60" as="geometry" />
        </mxCell>
        <mxCell id="1ZWAAFY9LWj_6pBdIGMN-8" value="/common/gui" style="rounded=1;whiteSpace=wrap;html=1;strokeColor=#D0CEE2;fontColor=#1A1A1A;fillColor=#5D7F99;" vertex="1" parent="1">
          <mxGeometry x="560" y="170" width="120" height="60" as="geometry" />
        </mxCell>
        <mxCell id="1ZWAAFY9LWj_6pBdIGMN-13" style="edgeStyle=orthogonalEdgeStyle;rounded=0;orthogonalLoop=1;jettySize=auto;html=1;exitX=0.5;exitY=1;exitDx=0;exitDy=0;entryX=0.5;entryY=0;entryDx=0;entryDy=0;strokeColor=#736CA8;fontColor=#1A1A1A;" edge="1" parent="1" source="1ZWAAFY9LWj_6pBdIGMN-10" target="1ZWAAFY9LWj_6pBdIGMN-12">
          <mxGeometry relative="1" as="geometry" />
        </mxCell>
        <mxCell id="1ZWAAFY9LWj_6pBdIGMN-10" value="/modules" style="rounded=1;whiteSpace=wrap;html=1;strokeColor=#D0CEE2;fontColor=#1A1A1A;fillColor=#5D7F99;" vertex="1" parent="1">
          <mxGeometry x="320" y="320" width="120" height="60" as="geometry" />
        </mxCell>
        <mxCell id="1ZWAAFY9LWj_6pBdIGMN-12" value="/modules/programs" style="rounded=1;whiteSpace=wrap;html=1;strokeColor=#D0CEE2;fontColor=#1A1A1A;fillColor=#5D7F99;" vertex="1" parent="1">
          <mxGeometry x="320" y="460" width="120" height="60" as="geometry" />
        </mxCell>
        <mxCell id="1ZWAAFY9LWj_6pBdIGMN-16" value="/modules/wallpapers" style="shape=parallelogram;perimeter=parallelogramPerimeter;whiteSpace=wrap;html=1;fixedSize=1;strokeColor=#D0CEE2;fontColor=#1A1A1A;fillColor=#5D7F99;" vertex="1" parent="1">
          <mxGeometry x="540" y="330" width="160" height="40" as="geometry" />
        </mxCell>
      </root>
    </mxGraphModel>
  </diagram>
</mxfile>
